HIERARCHY
ROOT Hips
{
  OFFSET 279.157 85.6768 304.565
  CHANNELS 6 Xposition Yposition Zposition Zrotation Xrotation Yrotation
  JOINT LeftUpLeg
  {
    OFFSET 8.64259 1.95398 -2.38835
    CHANNELS 3 Zrotation Xrotation Yrotation
    JOINT LeftLeg
    {
      OFFSET 43.7702 0 0
      CHANNELS 3 Zrotation Xrotation Yrotation
      JOINT LeftFoot
      {
        OFFSET 40.6238 0 0
        CHANNELS 3 Zrotation Xrotation Yrotation
        JOINT LeftToeBase
        {
          OFFSET 12.7242 0 0
          CHANNELS 3 Zrotation Xrotation Yrotation
          End Site
          {
            OFFSET 0 0 0
          }
        }
      }
    }
  }
  JOINT RightUpLeg
  {
    OFFSET -8.2249 1.95398 -2.59336
    CHANNELS 3 Zrotation Xrotation Yrotation
    JOINT RightLeg
    {
      OFFSET 43.5653 0 0
      CHANNELS 3 Zrotation Xrotation Yrotation
      JOINT RightFoot
      {
        OFFSET 40.6238 0 0
        CHANNELS 3 Zrotation Xrotation Yrotation
        JOINT RightToeBase
        {
          OFFSET 12.7242 0 0
          CHANNELS 3 Zrotation Xrotation Yrotation
          End Site
          {
            OFFSET 0 0 0
          }
        }
      }
    }
  }
  JOINT Spine
  {
    OFFSET 0.165834 0.87714 6.61349
    CHANNELS 3 Zrotation Xrotation Yrotation
    JOINT Spine1
    {
      OFFSET 7.38963 1.71661e-005 0
      CHANNELS 3 Zrotation Xrotation Yrotation
      JOINT Spine2
      {
        OFFSET 11.9445 1.14441e-005 0
        CHANNELS 3 Zrotation Xrotation Yrotation
        JOINT Spine3
        {
          OFFSET 14.7254 4.19617e-005 0
          CHANNELS 3 Zrotation Xrotation Yrotation
          JOINT Spine4
          {
            OFFSET 10.9679 0 0
            CHANNELS 3 Zrotation Xrotation Yrotation
            JOINT RightShoulder
            {
              OFFSET 2.46616 -1.6653 3.69651
              CHANNELS 3 Zrotation Xrotation Yrotation
              JOINT RightArm
              {
                OFFSET 13.0012 0 0
                CHANNELS 3 Zrotation Xrotation Yrotation
                JOINT RightForeArm
                {
                  OFFSET 28.7848 1.52588e-005 0
                  CHANNELS 3 Zrotation Xrotation Yrotation
                  JOINT RightHand
                  {
                    OFFSET 26.5688 1.52588e-005 0
                    CHANNELS 3 Zrotation Xrotation Yrotation
                    End Site
                    {
                      OFFSET 0 0 0
                    }
                  }
                }
              }
            }
            JOINT LeftShoulder
            {
              OFFSET 2.38034 -1.29275 -3.7523
              CHANNELS 3 Zrotation Xrotation Yrotation
              JOINT LeftArm
              {
                OFFSET 16.3182 6.10351e-005 0
                CHANNELS 3 Zrotation Xrotation Yrotation
                JOINT LeftForeArm
                {
                  OFFSET 27.0901 0 0
                  CHANNELS 3 Zrotation Xrotation Yrotation
                  JOINT LeftHand
                  {
                    OFFSET 24.5451 1.52588e-005 0
                    CHANNELS 3 Zrotation Xrotation Yrotation
                    End Site
                    {
                      OFFSET 0 0 0
                    }
                  }
                }
              }
            }
            JOINT Neck
            {
              OFFSET 5.0226 -0.0266342 0
              CHANNELS 3 Zrotation Xrotation Yrotation
              JOINT Head
              {
                OFFSET 6.69364 2.86102e-005 0
                CHANNELS 3 Zrotation Xrotation Yrotation
                End Site
                {
                  OFFSET 0 0 0
                }
              }
            }
          }
        }
      }
    }
  }
}
MOTION
Frames:	6
Frame Time:	0.0416667
29.8242 49.0678 -2.84744 -4.06053 -79.2129 -4.11823 -40.9824 58.9776 -12.7305 -134.622 23.7817 8.90522 91.8702 26.9025 2.13728 5.58113 -15.3844 4.49578 55.055 56.1566 -174.805 -133.901 -20.3152 -7.89055 92.6259 -27.281 -8.15699 12.2242 3.47968 8.05515 0.728704 12.2346 -90.4475 2.40804 1.28098 -0.851359 -9.2626 1.24227 -0.906928 -31.8021 1.47761 -0.426976 -11.7894 1.47762 -0.426965 86.0828 -16.7765 -122.444 -13.1821 20.0271 -44.4244 3.71889 3.6023 -6.88984 -0.557119 0.190942 -28.498 -92.7354 -28.0286 67.307 9.78858 -13.3528 -76.0016 2.31537 -21.2259 0.00298696 -26.4781 2.64222 -17.1306 46.6458 -0.774045 -1.19397 -16.6785 -0.0486673 -0.0369924 
29.7733 48.3928 -2.4854 -5.73712 -80.3631 -5.73178 -41.7201 59.5543 -11.7983 -135.724 23.1174 8.9738 93.2614 28.4814 2.79662 4.04535 -15.612 3.05052 55.8805 56.1923 -175.744 -135.183 -20.1399 -8.04713 92.8027 -27.8274 -8.97412 11.4074 2.98953 10.5529 0.732903 12.0731 -90.4355 2.73108 1.29304 -0.834084 -8.93953 1.25507 -0.890196 -31.4792 1.48392 -0.406854 -11.4665 1.48392 -0.406862 86.1087 -16.8258 -122.347 -12.6261 18.086 -44.3836 3.70819 4.20475 -7.37238 1.79259 -0.235463 -27.3802 -92.7515 -28.8838 67.6476 7.94878 -11.4586 -75.6603 2.18453 -19.3482 0.00310976 -27.5915 2.95978 -17.9513 47.1232 -1.04654 -1.05804 -16.574 -0.376425 -0.0139294 
29.7415 50.7363 -2.5775 -5.81313 -77.652 -6.02933 -43.4749 59.7112 -10.175 -132.218 24.7293 8.53895 92.498 28.1677 3.11155 4.31412 -15.5528 3.26426 55.8825 56.9362 -175.43 -131.742 -22.4724 -7.67883 91.0158 -25.9875 -8.11766 13.2455 3.13646 8.24744 0.739333 11.7046 -90.3281 3.46752 1.34629 -0.637415 -8.20289 1.31694 -0.696065 -30.7434 1.47561 -0.203258 -10.7308 1.47561 -0.203258 85.8089 -17.0977 -122.838 -12.884 17.186 -44.0154 4.1113 3.89112 -7.52922 0.733117 -0.0426878 -27.0876 -92.8992 -29.1834 67.4942 8.20226 -10.5947 -74.1058 1.88784 -20.1341 0.00341979 -26.8721 2.92526 -18.1945 48.771 -1.25839 -1.15604 -16.7781 -0.504763 0.0239684 
29.6427 56.0291 -2.98613 -4.15568 -71.9353 -4.75399 -47.108 60.2721 -7.45769 -123.453 28.0785 6.7029 90.7911 26.9394 3.34567 6.16705 -14.5749 3.68151 57.0782 58.3553 -175.895 -123.165 -25.9983 -5.97189 89.2904 -24.3206 -7.43463 12.6442 3.09611 9.01564 0.715943 11.2371 -90.2192 4.4017 1.34143 -0.441474 -7.26865 1.3207 -0.500098 -29.8094 1.41208 -0.0178408 -9.79668 1.41208 -0.0178272 86.2404 -17.1541 -121.796 -10.8838 17.3397 -45.717 3.69789 4.53061 -7.49456 0.22078 0.101408 -27.3356 -92.8942 -29.638 67.696 7.05275 -10.4703 -74.2715 2.40258 -17.7464 0.00377926 -26.5134 2.94759 -18.5078 50.6192 -1.56448 -1.28292 -17.254 -0.721411 0.252821 
29.3847 63.0736 -3.33409 -2.6087 -65.6 -3.02465 -52.3466 63.0891 -4.16179 -110.154 30.7398 2.3857 88.7522 24.78 2.93418 5.39209 -14.5541 2.68694 61.9424 60.8205 -179.5 -110.287 -30.3089 -1.95874 86.5714 -21.9656 -7.02203 13.1693 3.13926 8.32655 0.705938 10.7948 -90.1715 5.28605 1.33951 -0.364051 -6.38425 1.3222 -0.422661 -28.925 1.38698 0.0554293 -8.91233 1.38698 0.055435 85.8047 -18.2814 -121.975 -10.2339 17.0969 -45.8191 3.87994 1.65407 -7.22771 -0.773261 0.0906409 -26.2679 -93.0727 -30.0628 67.5401 5.71122 -10.3902 -74.137 2.85954 -11.0031 -0.125989 -25.4925 2.9736 -19.2714 50.8117 -2.15818 -1.92736 -17.3234 -0.952446 0.725475 
29.1582 70.7723 -2.9304 -2.00702 -58.862 -1.93784 -59.3375 66.9365 1.31806 -93.4924 33.4828 -4.76951 84.4939 20.7811 2.5598 8.19777 -13.4278 4.00691 69.9693 63.5926 173.116 -93.4115 -32.5842 5.08372 84.3284 -19.0985 -4.33754 12.2154 2.87125 10.2268 0.694155 10.322 -90.1558 6.2317 1.32091 -0.349462 -5.43862 1.30425 -0.407271 -27.9792 1.36486 0.063763 -7.96654 1.36486 0.0637598 85.262 -19.4706 -122.337 -9.80896 15.9187 -44.655 3.3434 -0.161503 -7.90033 -2.25127 0.244754 -25.6947 -93.2775 -30.8609 67.4922 5.9493 -10.025 -73.0469 2.41256 -4.23655 -1.40834 -23.669 2.73126 -19.286 50.6808 -2.24727 -1.93392 -16.4055 -0.925026 -0.0305682 
